<svg width="320" height="320" viewBox="0 0 320 320" fill="none" xmlns="http://www.w3.org/2000/svg">
<rect width="320" height="320" fill="white"/>
<path d="M199.21 117.4L120.61 78.29L42 117.4V294.34L120.61 255.24L199.21 294.34L277.82 255.24V78.29L199.21 117.4Z" fill="#FAC03D"/>
<path d="M199.53 294.34L120.93 255.24V213.42L199.82 248.8L199.53 294.34Z" fill="#EB5C0C"/>
<path d="M103.13 124.55V220.55L123.39 211.08L172.69 231.56L103.13 124.55Z" fill="#F39813"/>
<path d="M42 249.83V294.34L120.61 255.24L145.29 267.52L172.69 235.16L122.93 213.42L42 249.83Z" fill="#EE730D"/>
<path d="M96.42 90.32L42 117.4V294.34L96.42 267.27V90.32Z" fill="#E84130"/>
<path d="M199.21 294.34L277.82 255.24V78.29L199.21 117.4V294.34Z" fill="#F39813"/>
<path d="M199.21 294.34L277.82 255.24V213.42L198.93 248.8L199.21 294.34Z" fill="#EB5C0C"/>
<path d="M227.63 32.21C206.18 32.21 188.79 51.36 188.79 74.98C188.79 98.6 227.63 166.93 227.63 166.93C227.63 166.93 266.47 98.6 266.47 74.98C266.47 51.36 249.08 32.21 227.63 32.21Z" fill="#E84130" stroke="white" stroke-width="6.41" stroke-miterlimit="10"/>
<path d="M227.63 87.78C235.533 87.78 241.94 81.3732 241.94 73.47C241.94 65.5668 235.533 59.16 227.63 59.16C219.727 59.16 213.32 65.5668 213.32 73.47C213.32 81.3732 219.727 87.78 227.63 87.78Z" fill="white"/>
<path d="M277.82 213.42V203.86L198.76 239.32L178.14 231.28L105.01 119.24V86.05L96.42 90.32V219.51L42 245.15V254.65L123.28 216.35L168.07 236.22L141.5 265.63L149.49 269.6L176.34 239.88L198.93 248.79L277.82 213.41V213.42ZM123.17 206.9L105.01 215.46V134.97L163.69 224.88L123.17 206.9V206.9Z" fill="white"/>
</svg>
