<svg width="512" height="512" xmlns="http://www.w3.org/2000/svg"><g fill-rule="nonzero" fill="none"><path d="M0 343.807v21.817C0 445.951 65.122 511.07 145.452 511.07h18.808l167.27-167.26H0v-.003z" fill="#EE730D"/><path d="M184.822 511.07h135.17c80.33 0 145.452-65.115 145.452-145.446v-21.817H352.093L184.823 511.07z" fill="#EB5C0C"/><path d="M167.27 45.646h-21.818C65.122 45.646 0 110.765 0 191.092v138.174h167.27V45.646z" fill="#E84130"/><path d="M352.093 329.262h113.351V191.09c0-80.328-65.121-145.447-145.452-145.447-24.582.004-92.153.004-138.176.004v113.347l170.277 170.27z" fill="#FAC03D"/><path fill="#F39813" d="M181.816 329.262H331.53L181.816 179.554z"/><g fill="#573500" stroke="#FFF" stroke-width="2"><path d="M360.262 227.727L193.605 402.853c-4.595 4.834-5.506 13.39-2.062 19.624l5.288 9.622c3.447 6.28 10.048 8.009 15.107 4.041l182.456-143.806-34.132-64.607zM373.105 212.85l35.048 67.083 90.79-72.344c7.461-7.083 11.67-18.51 11.18-30.448-.28-11.664-3.257-22.957-8.553-32.449l-.01-.019c-5.154-9.72-12.46-17.232-20.976-21.578-8.749-4.62-18.72-3.213-26.432 3.701l-81.047 86.054zM278.43 146.576l-114.39 228.76c-3.28 6.593-1.84 15.265 3.221 19.642l7.666 6.64c4.795 4.176 11.293 3.086 15.074-2.579l139.795-209.69-51.367-42.773zM395.615 11.544c-18.444-15.323-39.97-13.89-49.944 3.836l-57.452 114.045 53.244 43.955 68.94-102.409c9.92-17.529 3.476-43.59-14.788-59.427z"/></g></g></svg>