<?xml version="1.0" ?><svg viewBox="0 0 64 64" xmlns="http://www.w3.org/2000/svg"><defs><style>.cls-1{fill:#4f4b46;}.cls-2{fill:#e7e4dd;}.cls-3{fill:#ee8041;}.cls-4{fill:#f19967;}.cls-5{fill:#f8cf6a;}.cls-6{fill:#ba9b50;}.cls-7{fill:#ed634a;}.cls-8{fill:#f29f8c;}.cls-9{fill:#a3d350;}.cls-10{fill:#fafaf8;}.cls-11{fill:#b36031;}.cls-12{fill:#fff;}</style></defs><title/><g data-name="Layer 13" id="Layer_13"><rect class="cls-1" height="60" width="60" x="2" y="2"/><rect class="cls-2" height="24" width="18" x="40" y="34"/><rect class="cls-3" height="16" rx="2" transform="translate(98 92) rotate(180)" width="10" x="44" y="38"/><path class="cls-4" d="M45,51c3.866,0,7-3.806,7-8.5A9.826,9.826,0,0,0,50.931,38H46a2,2,0,0,0-2,2V50.9A5.813,5.813,0,0,0,45,51Z"/><rect class="cls-2" height="24" width="24" x="34" y="6"/><rect class="cls-5" height="6" rx="3" width="8" x="38" y="10"/><path class="cls-6" d="M47,10H45a2.962,2.962,0,0,0-1,.184,2.982,2.982,0,0,1,0,5.632A2.962,2.962,0,0,0,45,16h2a3,3,0,0,0,0-6Z"/><path class="cls-5" d="M51,10H49a2.962,2.962,0,0,0-1,.184,2.982,2.982,0,0,1,0,5.632A2.962,2.962,0,0,0,49,16h2a3,3,0,0,0,0-6Z"/><rect class="cls-5" height="6" rx="3" width="8" x="38" y="20"/><path class="cls-6" d="M47,20H45a2.962,2.962,0,0,0-1,.184,2.982,2.982,0,0,1,0,5.632A2.962,2.962,0,0,0,45,26h2a3,3,0,0,0,0-6Z"/><path class="cls-5" d="M51,20H49a2.962,2.962,0,0,0-1,.184,2.982,2.982,0,0,1,0,5.632A2.962,2.962,0,0,0,49,26h2a3,3,0,0,0,0-6Z"/><rect class="cls-2" height="24" width="24" x="6" y="6"/><circle class="cls-7" cx="21" cy="21" r="5"/><circle class="cls-8" cx="15" cy="15" r="5"/><path class="cls-9" d="M12,21h0a3.415,3.415,0,0,1,2.414-1H16v1.586A3.415,3.415,0,0,1,15,24h0a3.415,3.415,0,0,1-2.414,1H11V23.414A3.415,3.415,0,0,1,12,21Z"/><path class="cls-9" d="M21,12h0a3.415,3.415,0,0,1,2.414-1H25v1.586A3.415,3.415,0,0,1,24,15h0a3.415,3.415,0,0,1-2.414,1H20V14.414A3.415,3.415,0,0,1,21,12Z"/><rect class="cls-2" height="24" width="30" x="6" y="34"/><path class="cls-10" d="M6,34V51.779A18.167,18.167,0,0,0,12.5,53c10.143,0,18.47-8.341,19.406-19Z"/><path class="cls-11" d="M44.373,53.157A2,2,0,0,0,46,54h.367l3.219-3.172A6.2,6.2,0,0,1,54,49V47a8.184,8.184,0,0,0-5.823,2.409Z"/><path class="cls-11" d="M44,48.586v2.828l3.879-3.878A8.6,8.6,0,0,1,54,45V43a10.581,10.581,0,0,0-7.535,3.122Z"/><path class="cls-11" d="M53.73,39.013a12.987,12.987,0,0,0-8.985,3.828L44,43.613v2.88l2.172-2.25A11,11,0,0,1,54,41V40A1.98,1.98,0,0,0,53.73,39.013Z"/><rect class="cls-1" height="2" transform="translate(-25.062 19.494) rotate(-45)" width="2.828" x="9.586" y="39"/><rect class="cls-1" height="2.828" transform="translate(-23.305 23.737) rotate(-45)" width="2" x="16" y="38.586"/><rect class="cls-1" height="2" transform="translate(-34.548 22.594) rotate(-45)" width="2.828" x="8.586" y="52"/><rect class="cls-1" height="2" transform="translate(-28.669 26.787) rotate(-45)" width="2.828" x="16.586" y="47"/><rect class="cls-1" height="2" transform="translate(-28.397 37.444) rotate(-45)" width="2.828" x="29.586" y="52"/><rect class="cls-1" height="2.828" transform="translate(-29.74 32.201) rotate(-45)" width="2" x="23" y="50.586"/><rect class="cls-1" height="2" transform="translate(-18.205 34.05) rotate(-45)" width="2.828" x="30.586" y="38"/><rect class="cls-1" height="2.828" transform="translate(-20.669 30.101) rotate(-45)" width="2" x="25" y="38.586"/><rect class="cls-1" height="2.828" transform="translate(-30.012 21.544) rotate(-45)" width="2" x="10" y="45.586"/><rect class="cls-1" height="2.828" transform="translate(-32.497 27.544) rotate(-45)" width="2" x="16" y="51.586"/><rect class="cls-1" height="2.828" transform="translate(-24.669 28.444) rotate(-45)" width="2" x="21" y="42.586"/><rect class="cls-1" height="2" transform="translate(-24.033 33.979) rotate(-45)" width="2.828" x="27.586" y="45"/><rect class="cls-12" height="2" width="2" x="14" y="14"/><rect class="cls-12" height="2" width="2" x="20" y="20"/></g></svg>