<?xml version="1.0" encoding="UTF-8"?>
<svg width="174px" height="174px" viewBox="0 0 174 174" version="1.1" xmlns="http://www.w3.org/2000/svg" xmlns:xlink="http://www.w3.org/1999/xlink">
    <!-- Generator: Sketch 61.2 (89653) - https://sketch.com -->
    <title>Untitled</title>
    <desc>Created with Sketch.</desc>
    <g id="Page-1" stroke="none" stroke-width="1" fill="none" fill-rule="evenodd">
        <g id="Group-2" transform="translate(0.000000, 2.000000)" fill-rule="nonzero">
            <g id="symbol">
                <g id="Group">
                    <path d="M0,109.433431 C0,112.695153 0,115.455942 0,117.440847 C0,146.923153 19.037,170.82362 42.52,170.82362 C43.919,170.82362 45.805,170.82362 48.018,170.82362 L96.916,109.434686 L0,109.434686 L0,109.433431 Z" id="Path" fill="#EE730D"></path>
                    <path d="M54.029,170.82362 C67.45,170.82362 86.511,170.82362 93.543,170.82362 C117.026,170.82362 136.063,146.924409 136.063,117.440847 C136.063,115.455942 136.063,112.695153 136.063,109.433431 L102.927,109.433431 L54.029,170.82362 Z" id="Path" fill="#EB5C0C"></path>
                    <path d="M48.898,0 C46.3,0 44.101,0 42.52,0 C19.037,0 0,23.9004672 0,53.3827737 C0,62.4046131 0,87.204 0,104.096409 L48.898,104.096409 L48.898,0 Z" id="Path" fill="#E84130"></path>
                    <path d="M102.927,104.095153 L136.063,104.095153 C136.063,87.204 136.063,62.4033577 136.063,53.3815182 C136.063,23.8992117 117.026,-0.00125547445 93.543,-0.00125547445 C86.357,0 66.604,0 53.15,0 L53.15,41.6014015 L102.927,104.095153 Z" id="Path" fill="#FAC03D"></path>
                    <polygon id="Path" fill="#F39813" points="53.15 104.095153 96.916 104.095153 53.15 49.1480584"></polygon>
                </g>
            </g>
            <g id="iconfinder_chopsticks_5481163" transform="translate(69.000000, 0.000000)" fill="#573500" stroke="#FFFFFF" stroke-width="2">
                <path d="M58.8805794,64.8431713 L70.2734073,86.4082983 L69.6190112,86.9240707 L15.7117848,129.411889 C13.5659472,131.094923 10.7144423,130.348599 9.33095288,127.827531 L7.77530895,124.997029 C6.49401924,122.677791 6.82765014,119.543583 8.57784915,117.702396 L58.8805794,64.8431713 Z" id="Path"></path>
                <path d="M101.311863,41.9740823 C102.972011,44.9535381 103.901187,48.4805537 103.987558,52.0999365 C104.146615,55.9680853 102.773293,59.6966058 100.228898,62.1070216 L72.2550477,84.3989226 L60.7841733,62.4430985 L61.2720362,61.9251019 L85.335062,36.380936 C88.0199437,33.9721133 91.5399389,33.4752516 94.5903269,35.0865615 C97.337021,36.4882668 99.6745851,38.8901081 101.311863,41.9740823 Z" id="Path"></path>
                <path d="M34.0595756,41.1100605 L51.3306802,55.4919316 L50.8320475,56.2398725 L9.53134383,118.190253 C7.99586367,120.490897 5.18283399,120.962883 3.16881555,119.209074 L0.913322681,117.255163 C-1.03732954,115.567884 -1.56800687,112.371987 -0.345753793,109.915695 L34.0595756,41.1100605 Z" id="Path"></path>
                <path d="M69.8142449,2.40496585 L69.8300789,2.41840583 C75.6476172,7.46122319 77.7096232,15.7965947 74.423689,21.5963708 L53.3195638,52.9476672 L35.7477957,38.4412504 L36.1069224,37.7283672 L53.1472996,3.90476426 C56.5256137,-2.09973613 63.8111857,-2.58413522 69.8142449,2.40496585 Z" id="Path"></path>
            </g>
        </g>
    </g>
</svg>